<svg xmlns="http://www.w3.org/2000/svg" xmlns:xlink="http://www.w3.org/1999/xlink" xml:space="preserve" width="1000px" height="1000px" version="1.1" style="shape-rendering:geometricPrecision; text-rendering:geometricPrecision; image-rendering:optimizeQuality; fill-rule:evenodd; clip-rule:evenodd" viewBox="0 0 1000 1000">
 <defs>
  <style type="text/css">
   <![CDATA[
    .fil0 {fill:#FEFEFE}
    .fil1 {fill:#C01F4C;fill-rule:nonzero}
   ]]>
  </style>
    <clipPath id="id0">
     <path d="M430 286l179 0 0 239 -179 0 0 -239z"/>
    </clipPath>
 </defs>
 <g id="Layer_x0020_1">
  <metadata id="CorelCorpID_0Corel-Layer"/>
  <polygon class="fil0" points="225,188 777,188 777,598 225,598 "/>
  <polygon class="fil0" points="225,748 412,588 225,588 "/>
  <g id="_241137984">
   <g style="clip-path:url(#id0)">
    <image x="430" y="286" width="178" height="239" xlink:href="nephos-white_Images\nephos-white_ImgID1.png"/>
   </g>
  </g>
  <path class="fil1" d="M470 318c26,0 32,0 40,3 9,4 14,11 14,26 0,12 -1,23 -16,29 -7,2 -11,2 -38,2l0 -60zm0 94l16 0 41 89 51 0 -47 -96c30,-9 41,-30 41,-58 0,-57 -44,-62 -79,-62l-70 0 0 216 47 0 0 -89z"/>
 </g>
</svg>