<?xml version="1.0" encoding="UTF-8"?>
<!DOCTYPE svg PUBLIC "-//W3C//DTD SVG 1.1//EN" "http://www.w3.org/Graphics/SVG/1.1/DTD/svg11.dtd">
<!-- Creator: CorelDRAW X7 -->
<svg xmlns="http://www.w3.org/2000/svg" xml:space="preserve" width="1000px" height="1000px" version="1.1" style="shape-rendering:geometricPrecision; text-rendering:geometricPrecision; image-rendering:optimizeQuality; fill-rule:evenodd; clip-rule:evenodd"
viewBox="0 0 1000 1000"
 xmlns:xlink="http://www.w3.org/1999/xlink">
 <defs>
  <style type="text/css">
   <![CDATA[
    .fil0 {fill:#BF1249}
    .fil1 {fill:white;fill-rule:nonzero}
   ]]>
  </style>
    <clipPath id="id0">
     <path d="M430 286l179 0 0 239 -179 0 0 -239z"/>
    </clipPath>
 </defs>
 <g id="Layer_x0020_1">
  <metadata id="CorelCorpID_0Corel-Layer"/>
  <g id="_495776856">
   <rect class="fil0" x="225" y="188" width="552" height="410"/>
   <polygon class="fil0" points="225,748 412,588 225,588 "/>
  </g>
  <g id="_495776256">
   <g style="clip-path:url(#id0)">
    <image x="430" y="286" width="178" height="239" xlink:href="nephos_Images\nephos_ImgID1.png"/>
   </g>
  </g>
  <path class="fil1" d="M470 318c26,0 32,0 40,3 9,4 14,11 14,26 0,12 -1,23 -16,29 -7,2 -11,2 -38,2l0 -60zm0 94l16 0 41 89 51 0 -47 -96c30,-9 41,-30 41,-58 0,-57 -44,-62 -79,-62l-70 0 0 216 47 0 0 -89z"/>
 </g>
</svg>
