<svg width="30" height="13" viewBox="0 0 30 13" fill="none" xmlns="http://www.w3.org/2000/svg">
<g id="Frame 427319758">
<g id="Group 12210">
<path id="Vector" d="M6.5 9.75C8.29493 9.75 9.75 8.29493 9.75 6.5C9.75 4.70507 8.29493 3.25 6.5 3.25C4.70507 3.25 3.25 4.70507 3.25 6.5C3.25 8.29493 4.70507 9.75 6.5 9.75Z" fill="#FADB41"/>
<path id="Vector_2" d="M6.5001 1.94977C6.14082 1.94977 5.8501 1.65872 5.8501 1.29977V0.65C5.8501 0.291053 6.14082 0 6.5001 0C6.85938 0 7.1501 0.291053 7.1501 0.65V1.29977C7.1501 1.65872 6.85938 1.94977 6.5001 1.94977Z" fill="#FADB41"/>
<path id="Vector_3" d="M10.1773 3.47285C10.011 3.47285 9.84473 3.40938 9.71777 3.28242C9.46387 3.02859 9.46387 2.61704 9.71777 2.36321L10.1773 1.90371C10.4313 1.64996 10.8426 1.64988 11.0965 1.90379C11.3504 2.15762 11.3504 2.56918 11.0965 2.82301L10.6369 3.2825C10.51 3.40938 10.3437 3.47285 10.1773 3.47285Z" fill="#FADB41"/>
<path id="Vector_4" d="M12.3498 7.14998H11.6998C11.3405 7.14998 11.0498 6.85892 11.0498 6.49998C11.0498 6.14103 11.3405 5.84998 11.6998 5.84998H12.3498C12.7091 5.84998 12.9998 6.14103 12.9998 6.49998C12.9998 6.85892 12.7091 7.14998 12.3498 7.14998Z" fill="#FADB41"/>
<path id="Vector_5" d="M10.6369 11.2866C10.4706 11.2866 10.3043 11.2232 10.1773 11.0963L9.71777 10.6368C9.46387 10.383 9.46387 9.9714 9.71777 9.71757C9.97168 9.46366 10.383 9.46359 10.6369 9.71749L11.0965 10.177C11.3504 10.4308 11.3504 10.8424 11.0965 11.0962C10.9695 11.2232 10.8032 11.2866 10.6369 11.2866Z" fill="#FADB41"/>
<path id="Vector_6" d="M6.5001 12.9999C6.14082 12.9999 5.8501 12.7089 5.8501 12.3499V11.7002C5.8501 11.3412 6.14082 11.0502 6.5001 11.0502C6.85938 11.0502 7.1501 11.3412 7.1501 11.7002V12.3499C7.1501 12.7089 6.85938 12.9999 6.5001 12.9999Z" fill="#FADB41"/>
<path id="Vector_7" d="M2.36338 11.2866C2.19707 11.2866 2.03076 11.2231 1.90381 11.0961C1.6499 10.8423 1.6499 10.4308 1.90381 10.1769L2.36338 9.71743C2.61729 9.46368 3.02861 9.4636 3.28252 9.71751C3.53643 9.97134 3.53643 10.3829 3.28252 10.6367L2.82295 11.0962C2.696 11.2231 2.52969 11.2866 2.36338 11.2866Z" fill="#FADB41"/>
<path id="Vector_8" d="M1.3 7.14998H0.65C0.290723 7.14998 0 6.85892 0 6.49998C0 6.14103 0.290723 5.84998 0.65 5.84998H1.3C1.65928 5.84998 1.95 6.14103 1.95 6.49998C1.95 6.85892 1.65928 7.14998 1.3 7.14998Z" fill="#FADB41"/>
<path id="Vector_9" d="M2.82295 3.47291C2.65664 3.47291 2.49033 3.40951 2.36338 3.28256L1.90381 2.82306C1.6499 2.56923 1.6499 2.15768 1.90381 1.90385C2.15771 1.64994 2.56904 1.64986 2.82295 1.90377L3.28252 2.36326C3.53643 2.61709 3.53643 3.02865 3.28252 3.28248C3.15557 3.40943 2.98926 3.47291 2.82295 3.47291Z" fill="#FADB41"/>
</g>
<g id="Group 12209">
<path id="Vector_10" d="M23.5 1.625C23.7155 1.625 23.9222 1.56793 24.0745 1.46635C24.2269 1.36477 24.3125 1.22699 24.3125 1.08333V0.541667C24.3125 0.398008 24.2269 0.260233 24.0745 0.15865C23.9222 0.0570683 23.7155 0 23.5 0C23.2845 0 23.0778 0.0570683 22.9255 0.15865C22.7731 0.260233 22.6875 0.398008 22.6875 0.541667V1.08333C22.6875 1.22699 22.7731 1.36477 22.9255 1.46635C23.0778 1.56793 23.2845 1.625 23.5 1.625Z" fill="#040726"/>
<path id="Vector_11" d="M23.5 11.375C23.2845 11.375 23.0778 11.4321 22.9255 11.5337C22.7731 11.6352 22.6875 11.773 22.6875 11.9167V12.4583C22.6875 12.602 22.7731 12.7398 22.9255 12.8413C23.0778 12.9429 23.2845 13 23.5 13C23.7155 13 23.9222 12.9429 24.0745 12.8413C24.2269 12.7398 24.3125 12.602 24.3125 12.4583V11.9167C24.3125 11.773 24.2269 11.6352 24.0745 11.5337C23.9222 11.4321 23.7155 11.375 23.5 11.375Z" fill="#040726"/>
<path id="Vector_12" d="M29.4583 5.6875H28.9167C28.773 5.6875 28.6352 5.7731 28.5337 5.92548C28.4321 6.07785 28.375 6.28451 28.375 6.5C28.375 6.71549 28.4321 6.92215 28.5337 7.07452C28.6352 7.2269 28.773 7.3125 28.9167 7.3125H29.4583C29.602 7.3125 29.7398 7.2269 29.8413 7.07452C29.9429 6.92215 30 6.71549 30 6.5C30 6.28451 29.9429 6.07785 29.8413 5.92548C29.7398 5.7731 29.602 5.6875 29.4583 5.6875Z" fill="#040726"/>
<path id="Vector_13" d="M18.0833 5.6875H17.5417C17.398 5.6875 17.2602 5.7731 17.1587 5.92548C17.0571 6.07785 17 6.28451 17 6.5C17 6.71549 17.0571 6.92215 17.1587 7.07452C17.2602 7.2269 17.398 7.3125 17.5417 7.3125H18.0833C18.227 7.3125 18.3648 7.2269 18.4663 7.07452C18.5679 6.92215 18.625 6.71549 18.625 6.5C18.625 6.28451 18.5679 6.07785 18.4663 5.92548C18.3648 5.7731 18.227 5.6875 18.0833 5.6875Z" fill="#040726"/>
<path id="Vector_14" d="M27.8648 1.71256L27.6537 1.9238C27.6252 1.95136 27.6024 1.98433 27.5867 2.02079C27.5711 2.05724 27.5629 2.09645 27.5625 2.13612C27.5622 2.17579 27.5697 2.21513 27.5847 2.25185C27.5998 2.28857 27.6219 2.32193 27.65 2.34999C27.678 2.37804 27.7114 2.40023 27.7481 2.41525C27.7848 2.43027 27.8241 2.43783 27.8638 2.43749C27.9034 2.43714 27.9426 2.4289 27.9791 2.41324C28.0155 2.39758 28.0485 2.37482 28.076 2.34628L28.2875 2.13534C28.3152 2.10758 28.3372 2.07463 28.3523 2.03836C28.3673 2.00208 28.375 1.96321 28.375 1.92395C28.375 1.88469 28.3673 1.84582 28.3523 1.80955C28.3372 1.77328 28.3152 1.74032 28.2875 1.71256C28.2597 1.6848 28.2268 1.66278 28.1905 1.64776C28.1543 1.63273 28.1154 1.625 28.0762 1.625C28.0369 1.625 27.9981 1.63273 27.9618 1.64776C27.9255 1.66278 27.8926 1.6848 27.8648 1.71256Z" fill="#040726"/>
<path id="Vector_15" d="M18.9253 10.6503L18.7129 10.8625C18.685 10.8904 18.6629 10.9235 18.6478 10.9599C18.6328 10.9963 18.625 11.0353 18.625 11.0748C18.625 11.1142 18.6328 11.1532 18.6478 11.1897C18.6629 11.2261 18.685 11.2592 18.7129 11.2871C18.7692 11.3434 18.8456 11.375 18.9252 11.375C18.9646 11.375 19.0036 11.3672 19.04 11.3521C19.0765 11.3371 19.1096 11.3149 19.1374 11.2871L19.3495 11.0749C19.3774 11.0471 19.3995 11.014 19.4146 10.9776C19.4297 10.9412 19.4375 10.9021 19.4375 10.8627C19.4375 10.8233 19.4298 10.7843 19.4147 10.7479C19.3996 10.7115 19.3775 10.6784 19.3497 10.6505C19.3218 10.6226 19.2888 10.6005 19.2524 10.5854C19.216 10.5703 19.1769 10.5625 19.1375 10.5625C19.058 10.5625 18.9816 10.5941 18.9253 10.6503Z" fill="#040726"/>
<path id="Vector_16" d="M28.0733 10.6471C28.0164 10.5922 27.9403 10.5618 27.8613 10.5625C27.7823 10.5632 27.7067 10.5949 27.6508 10.6508C27.5949 10.7067 27.5632 10.7823 27.5625 10.8613C27.5618 10.9403 27.5922 11.0164 27.6471 11.0733L27.8602 11.2867C27.9167 11.3432 27.9935 11.375 28.0734 11.375C28.1534 11.375 28.2301 11.3432 28.2867 11.2867C28.3432 11.2301 28.375 11.1534 28.375 11.0734C28.375 10.9935 28.3432 10.9167 28.2867 10.8602L28.0733 10.6471Z" fill="#040726"/>
<path id="Vector_17" d="M18.9267 2.35289C18.9836 2.4078 19.0597 2.43818 19.1387 2.43749C19.2177 2.4368 19.2933 2.4051 19.3492 2.34922C19.4051 2.29334 19.4368 2.21775 19.4375 2.13872C19.4382 2.05969 19.4078 1.98356 19.3529 1.92672L19.1398 1.71333C19.0833 1.65677 19.0065 1.625 18.9266 1.625C18.8466 1.625 18.7699 1.65677 18.7133 1.71333C18.6568 1.76988 18.625 1.84659 18.625 1.92657C18.625 2.00655 18.6568 2.08325 18.7133 2.13981L18.9267 2.35289Z" fill="#040726"/>
<path id="Vector_18" d="M27.4272 7.16864C27.369 7.11117 27.2962 7.07061 27.2167 7.05129C27.1372 7.03197 27.0539 7.03462 26.9758 7.05896C26.6729 7.15251 26.3576 7.19939 26.0406 7.19798C25.1816 7.19715 24.3581 6.8556 23.7507 6.24829C23.1433 5.64097 22.8016 4.81751 22.8006 3.95858C22.7995 3.64169 22.8467 3.32648 22.9406 3.02381C22.9651 2.94562 22.9678 2.86223 22.9485 2.78259C22.9292 2.70295 22.8886 2.63006 22.831 2.57175C22.7735 2.51344 22.7011 2.4719 22.6217 2.45159C22.5423 2.43127 22.4589 2.43296 22.3804 2.45645C21.6952 2.66365 21.0754 3.04489 20.5815 3.563C20.0876 4.0811 19.7363 4.71837 19.5621 5.41265C19.3878 6.10694 19.3965 6.83453 19.5873 7.52447C19.778 8.2144 20.1443 8.84312 20.6505 9.3493C21.1566 9.85549 21.7853 10.2218 22.4753 10.4127C23.1652 10.6035 23.8928 10.6122 24.5871 10.438C25.2814 10.2638 25.9188 9.91267 26.4369 9.41878C26.9551 8.9249 27.3364 8.30516 27.5436 7.62C27.5671 7.54129 27.5687 7.45766 27.5482 7.37813C27.5277 7.29859 27.4858 7.22616 27.4272 7.16864Z" fill="#040726"/>
</g>
</g>
</svg>
