<svg width="43" height="62" viewBox="0 0 43 62" fill="none" xmlns="http://www.w3.org/2000/svg">
<g id="Frame 427319970" opacity="0.4">
<g id="Group 33959">
<path id="Vector 31 (Stroke)" fill-rule="evenodd" clip-rule="evenodd" d="M38.1284 1.76902L41.686 15.8552C41.9013 16.7074 41.3793 17.5707 40.5201 17.7835C39.661 17.9963 38.79 17.4779 38.5748 16.6257L36.4736 8.30625L24.6315 32.6124L11.6981 31.987L19.6692 49.7651L5.33598 49.072L7.47178 58.335C7.66924 59.1915 7.1294 60.0439 6.266 60.2391C5.4026 60.4343 4.54259 59.8982 4.34512 59.0417L1.26674 45.6907L14.6227 46.3365L6.65164 28.5584L22.666 29.3328L34.0615 5.94347L21.3668 8.79201C20.5031 8.98582 19.6439 8.4484 19.4478 7.59166C19.2517 6.73492 19.7929 5.88329 20.6566 5.68948L38.1284 1.76902Z" fill="#4FD694"/>
</g>
</g>
</svg>
