<svg width="218" height="57" viewBox="0 0 218 57" fill="none" xmlns="http://www.w3.org/2000/svg">
<g id="Group 33927">
<path id="Vector" fill-rule="evenodd" clip-rule="evenodd" d="M0.38092 33.7423H6.49413C10.5696 33.7423 20.7583 33.7423 30.947 27.365C41.1356 20.9876 51.3243 8.23301 61.513 6.10723C71.7017 1.85569 81.8904 12.4846 92.079 16.7361C102.268 20.9876 114.494 20.9876 124.683 25.2392C134.871 27.365 145.06 33.7423 155.249 29.4907C165.438 23.1134 175.626 6.10723 185.815 1.85569C196.004 -2.39586 206.192 10.3588 210.268 14.6103L216.381 20.9876V55H210.268C206.192 55 196.004 55 185.815 55C175.626 55 165.438 55 155.249 55C145.06 55 134.871 55 124.683 55C114.494 55 102.268 55 92.079 55C81.8904 55 71.7017 55 61.513 55C51.3243 55 41.1356 55 30.947 55C20.7583 55 10.5696 55 6.49413 55H0.38092V33.7423Z" fill="url(#paint0_linear_608_2939)" fill-opacity="0.3"/>
<path id="Vector_2" d="M0.761841 33.7423H6.87505C10.9505 33.7423 21.1392 33.7423 31.3279 27.365C41.5166 20.9876 51.7052 8.23301 61.8939 6.10723C72.0826 1.85569 82.2713 12.4845 92.46 16.7361C102.649 20.9876 114.875 20.9876 125.064 25.2392C135.252 27.365 145.441 33.7423 155.63 29.4907C165.818 23.1134 176.007 6.10723 186.196 1.85569C196.384 -2.39586 206.573 10.3588 210.649 14.6103L216.762 20.9876" stroke="#3FCCEB"/>
<g id="Line 152" filter="url(#filter0_d_608_2939)">
<path d="M78.6776 6.66668C77.9412 6.6709 77.3474 7.27127 77.3512 8.00764C77.355 8.74401 77.955 9.33753 78.6914 9.33332C79.4278 9.3291 80.0216 8.72873 80.0178 7.99236C80.014 7.25599 79.414 6.66247 78.6776 6.66668ZM78.4345 8.00143L78.6776 55.0013L79.1776 54.9985L78.9345 7.99857L78.4345 8.00143Z" fill="#3FCCEB"/>
</g>
</g>
<defs>
<filter id="filter0_d_608_2939" x="75.3512" y="4.66666" width="6.66663" height="52.3347" filterUnits="userSpaceOnUse" color-interpolation-filters="sRGB">
<feFlood flood-opacity="0" result="BackgroundImageFix"/>
<feColorMatrix in="SourceAlpha" type="matrix" values="0 0 0 0 0 0 0 0 0 0 0 0 0 0 0 0 0 0 127 0" result="hardAlpha"/>
<feOffset/>
<feGaussianBlur stdDeviation="1"/>
<feComposite in2="hardAlpha" operator="out"/>
<feColorMatrix type="matrix" values="0 0 0 0 0 0 0 0 0 0 0 0 0 0 0 0 0 0 0.25 0"/>
<feBlend mode="normal" in2="BackgroundImageFix" result="effect1_dropShadow_608_2939"/>
<feBlend mode="normal" in="SourceGraphic" in2="effect1_dropShadow_608_2939" result="shape"/>
</filter>
<linearGradient id="paint0_linear_608_2939" x1="108.381" y1="55" x2="108.381" y2="1" gradientUnits="userSpaceOnUse">
<stop stop-color="#9CEDFF"/>
<stop offset="1" stop-color="#3FCCEB"/>
</linearGradient>
</defs>
</svg>
