<svg width="217" height="57" viewBox="0 0 217 57" fill="none" xmlns="http://www.w3.org/2000/svg">
<g id="Group 33928">
<path id="Vector" fill-rule="evenodd" clip-rule="evenodd" d="M0.5 48.25L2.12 43.75C3.74 39.25 6.98 30.25 10.4 25.75C13.64 21.25 16.88 21.25 20.12 25.75C23.36 30.25 26.6 39.25 30.02 34.75C33.26 30.25 36.5 12.25 39.74 10C42.98 7.75 46.4 21.25 49.64 23.5C52.88 25.75 56.12 16.75 59.36 16.75C62.6 16.75 66.02 25.75 69.26 22.375C72.5 19 75.74 3.25 78.98 3.25C82.4 3.25 85.64 19 88.88 25.75C92.12 32.5 95.36 30.25 98.6 26.875C102.02 23.5 105.26 19 108.5 19C111.74 19 114.98 23.5 118.4 24.625C121.64 25.75 124.88 23.5 128.12 19C131.36 14.5 134.6 7.75 138.02 5.5C141.26 3.25 144.5 5.5 147.74 13.375C150.98 21.25 154.4 34.75 157.64 41.5C160.88 48.25 164.12 48.25 167.36 41.5C170.6 34.75 174.02 21.25 177.26 15.625C180.5 10 183.74 12.25 186.98 16.75C190.4 21.25 193.64 28 196.88 33.625C200.12 39.25 203.36 43.75 206.6 38.125C210.02 32.5 213.26 16.75 214.88 8.875L216.5 1V55H214.88C213.26 55 210.02 55 206.6 55C203.36 55 200.12 55 196.88 55C193.64 55 190.4 55 186.98 55C183.74 55 180.5 55 177.26 55C174.02 55 170.6 55 167.36 55C164.12 55 160.88 55 157.64 55C154.4 55 150.98 55 147.74 55C144.5 55 141.26 55 138.02 55C134.6 55 131.36 55 128.12 55C124.88 55 121.64 55 118.4 55C114.98 55 111.74 55 108.5 55C105.26 55 102.02 55 98.6 55C95.36 55 92.12 55 88.88 55C85.64 55 82.4 55 78.98 55C75.74 55 72.5 55 69.26 55C66.02 55 62.6 55 59.36 55C56.12 55 52.88 55 49.64 55C46.4 55 42.98 55 39.74 55C36.5 55 33.26 55 30.02 55C26.6 55 23.36 55 20.12 55C16.88 55 13.64 55 10.4 55C6.98 55 3.74 55 2.12 55H0.5V48.25Z" fill="url(#paint0_linear_608_2946)" fill-opacity="0.4"/>
<path id="Vector_2" d="M0.5 48L2.12 43.5238C3.74 39.0476 6.98 30.0952 10.4 25.619C13.64 21.1429 16.88 21.1429 20.12 25.619C23.36 30.0952 26.6 39.0476 30.02 34.5714C33.26 30.0952 36.5 12.1905 39.74 9.95238C42.98 7.71429 46.4 21.1429 49.64 23.381C52.88 25.619 56.12 16.6667 59.36 16.6667C62.6 16.6667 66.02 25.619 69.26 22.2619C72.5 18.9048 75.74 3.2381 78.98 3.2381C82.4 3.2381 85.64 18.9048 88.88 25.619C92.12 32.3333 95.36 30.0952 98.6 26.7381C102.02 23.381 105.26 18.9048 108.5 18.9048C111.74 18.9048 114.98 23.381 118.4 24.5C121.64 25.619 124.88 23.381 128.12 18.9048C131.36 14.4286 134.6 7.71429 138.02 5.47619C141.26 3.2381 144.5 5.47619 147.74 13.3095C150.98 21.1429 154.4 34.5714 157.64 41.2857C160.88 48 164.12 48 167.36 41.2857C170.6 34.5714 174.02 21.1429 177.26 15.5476C180.5 9.95238 183.74 12.1905 186.98 16.6667C190.4 21.1429 193.64 27.8571 196.88 33.4524C200.12 39.0476 203.36 43.5238 206.6 37.9286C210.02 32.3333 213.26 16.6667 214.88 8.83333L216.5 1" stroke="#0099FF" stroke-linecap="round"/>
<g id="Line 152" filter="url(#filter0_d_608_2946)">
<path d="M140.5 3.66667C139.764 3.66667 139.167 4.26362 139.167 5C139.167 5.73638 139.764 6.33333 140.5 6.33333C141.236 6.33333 141.833 5.73638 141.833 5C141.833 4.26362 141.236 3.66667 140.5 3.66667ZM140.25 5V55H140.75V5H140.25Z" fill="#0099FF"/>
</g>
</g>
<defs>
<filter id="filter0_d_608_2946" x="137.167" y="1.66666" width="6.66669" height="55.3333" filterUnits="userSpaceOnUse" color-interpolation-filters="sRGB">
<feFlood flood-opacity="0" result="BackgroundImageFix"/>
<feColorMatrix in="SourceAlpha" type="matrix" values="0 0 0 0 0 0 0 0 0 0 0 0 0 0 0 0 0 0 127 0" result="hardAlpha"/>
<feOffset/>
<feGaussianBlur stdDeviation="1"/>
<feComposite in2="hardAlpha" operator="out"/>
<feColorMatrix type="matrix" values="0 0 0 0 0 0 0 0 0 0 0 0 0 0 0 0 0 0 0.25 0"/>
<feBlend mode="normal" in2="BackgroundImageFix" result="effect1_dropShadow_608_2946"/>
<feBlend mode="normal" in="SourceGraphic" in2="effect1_dropShadow_608_2946" result="shape"/>
</filter>
<linearGradient id="paint0_linear_608_2946" x1="108.5" y1="1" x2="108.5" y2="55" gradientUnits="userSpaceOnUse">
<stop stop-color="#0099FF" stop-opacity="0.25"/>
<stop offset="0.927547" stop-color="#005C99" stop-opacity="0.75"/>
</linearGradient>
</defs>
</svg>
