<svg width="45" height="45" viewBox="0 0 45 45" fill="none" xmlns="http://www.w3.org/2000/svg">
<g id="fluent:comment-mention-16-regular">
<path id="Vector" d="M32.3438 5.61951C30.4778 5.61951 28.6883 6.36074 27.3689 7.68015C26.0495 8.99955 25.3083 10.7891 25.3083 12.655C25.3083 14.5209 26.0495 16.3104 27.3689 17.6298C28.6883 18.9492 30.4778 19.6904 32.3438 19.6904C33.1706 19.6904 33.9272 19.547 34.6781 19.2742C34.8531 19.2053 35.04 19.1721 35.228 19.1767C35.416 19.1813 35.6011 19.2235 35.7724 19.3009C35.9438 19.3783 36.0979 19.4893 36.2256 19.6272C36.3533 19.7652 36.4521 19.9274 36.5161 20.1042C36.58 20.281 36.6079 20.4689 36.5979 20.6566C36.588 20.8444 36.5406 21.0282 36.4584 21.1973C36.3762 21.3664 36.2609 21.5173 36.1194 21.6411C35.9778 21.7649 35.8129 21.859 35.6344 21.9179C34.5803 22.3046 33.4665 22.5026 32.3438 22.5029C30.3965 22.5024 28.4932 21.9245 26.8744 20.8423C25.2555 19.7602 23.9939 18.2223 23.249 16.4232C22.5041 14.6241 22.3093 12.6445 22.6893 10.7347C23.0694 8.82494 24.0071 7.07071 25.384 5.69381C26.7609 4.31691 28.5151 3.37918 30.4249 2.99916C32.3347 2.61913 34.3143 2.81389 36.1134 3.55881C37.9125 4.30372 39.4503 5.56534 40.5325 7.18417C41.6147 8.803 42.1926 10.7063 42.1931 12.6536C42.1941 13.469 41.9587 14.2673 41.5154 14.9518C41.0721 15.6362 40.44 16.1775 39.6955 16.5102C38.951 16.8429 38.126 16.9527 37.3204 16.8263C36.5148 16.6999 35.7631 16.3427 35.1562 15.7979C34.5872 16.3068 33.8908 16.6517 33.1411 16.7959C32.3915 16.9401 31.6168 16.8782 30.8996 16.6168C30.1824 16.3555 29.5495 15.9044 29.0685 15.3116C28.5874 14.7189 28.2762 14.0068 28.168 13.2511C28.0598 12.4955 28.1586 11.7246 28.454 11.0207C28.7494 10.3168 29.2302 9.70626 29.8452 9.2541C30.4603 8.80193 31.1865 8.52511 31.9464 8.45315C32.7064 8.38118 33.4716 8.51676 34.1606 8.84544C34.356 8.64564 34.6068 8.50886 34.8806 8.45272C35.1544 8.39657 35.4387 8.42362 35.697 8.53039C35.9553 8.63715 36.1757 8.81875 36.33 9.05182C36.4842 9.28489 36.5652 9.55878 36.5625 9.83826V12.6508C36.5618 12.8358 36.5975 13.0192 36.6676 13.1904C36.7377 13.3616 36.8409 13.5174 36.9712 13.6488C37.1016 13.7801 37.2565 13.8845 37.4271 13.956C37.5978 14.0275 37.7809 14.0647 37.9659 14.0654C38.151 14.0662 38.3344 14.0305 38.5056 13.9603C38.6768 13.8902 38.8326 13.787 38.9639 13.6567C39.2292 13.3935 39.3791 13.0357 39.3806 12.662V12.6564C39.3814 11.7321 39.1999 10.8167 38.8465 9.96261C38.4931 9.10852 37.9748 8.33249 37.3212 7.67891C36.6676 7.02533 35.8916 6.50702 35.0375 6.15365C34.1834 5.80028 33.2681 5.61877 32.3438 5.61951ZM30.9375 12.6564C30.9375 13.0293 31.0857 13.387 31.3494 13.6507C31.6131 13.9145 31.9708 14.0626 32.3438 14.0626C32.7167 14.0626 33.0744 13.9145 33.3381 13.6507C33.6018 13.387 33.75 13.0293 33.75 12.6564C33.75 12.2834 33.6018 11.9257 33.3381 11.662C33.0744 11.3983 32.7167 11.2501 32.3438 11.2501C31.9708 11.2501 31.6131 11.3983 31.3494 11.662C31.0857 11.9257 30.9375 12.2834 30.9375 12.6564ZM42.1875 26.7189V20.6101C41.3851 21.604 40.4369 22.4707 39.375 23.1808V26.7189C39.375 27.8378 38.9305 28.9108 38.1394 29.702C37.3482 30.4932 36.2751 30.9376 35.1562 30.9376H23.3775L14.0625 39.0854V30.932H9.84375C8.72584 30.932 7.65364 30.4883 6.86263 29.6984C6.07162 28.9084 5.62649 27.8368 5.625 26.7189V12.6564C5.625 11.5375 6.06947 10.4644 6.86064 9.67327C7.65181 8.8821 8.72487 8.43763 9.84375 8.43763H20.4075C20.7638 7.43638 21.2344 6.49888 21.8194 5.62513H9.84375C7.97895 5.62513 6.19052 6.36592 4.87191 7.68454C3.55329 9.00315 2.8125 10.7916 2.8125 12.6564V26.7189C2.8125 27.6422 2.99437 28.5566 3.34772 29.4096C3.70108 30.2627 4.21899 31.0378 4.87191 31.6907C6.19052 33.0093 7.97895 33.7501 9.84375 33.7501H11.25V39.2148C11.2504 39.744 11.4032 40.2619 11.6901 40.7066C11.977 41.1514 12.3858 41.5041 12.8678 41.7227C13.3498 41.9413 13.8845 42.0165 14.408 41.9393C14.9316 41.8622 15.4219 41.6359 15.8203 41.2876L24.435 33.7501H35.1562C36.0796 33.7501 36.9939 33.5683 37.847 33.2149C38.7001 32.8616 39.4752 32.3436 40.1281 31.6907C40.781 31.0378 41.2989 30.2627 41.6523 29.4096C42.0056 28.5566 42.1875 27.6422 42.1875 26.7189Z" fill="#7F989A"/>
</g>
</svg>
