<svg width="24" height="24" viewBox="0 0 24 24" fill="none" xmlns="http://www.w3.org/2000/svg">
<path d="M18.134 12C18.715 17.375 21 19 21 19H3C3 19 6 16.867 6 9.4C6 7.703 6.632 6.075 7.757 4.875C8.882 3.675 10.41 3 12 3C12.338 3 12.6713 3.03 13 3.09M13.73 22C13.5542 22.3031 13.3018 22.5547 12.9982 22.7295C12.6946 22.9044 12.3504 22.9965 12 22.9965C11.6496 22.9965 11.3054 22.9044 11.0018 22.7295C10.6982 22.5547 10.4458 22.3031 10.27 22M19 9C19.7956 9 20.5587 8.68393 21.1213 8.12132C21.6839 7.55871 22 6.79565 22 6C22 5.20435 21.6839 4.44129 21.1213 3.87868C20.5587 3.31607 19.7956 3 19 3C18.2044 3 17.4413 3.31607 16.8787 3.87868C16.3161 4.44129 16 5.20435 16 6C16 6.79565 16.3161 7.55871 16.8787 8.12132C17.4413 8.68393 18.2044 9 19 9Z" stroke="#7F989A" stroke-width="1.5" stroke-linecap="round" stroke-linejoin="round"/>
<circle cx="18.1875" cy="5.5" r="4.3125" fill="#F1623F" stroke="white"/>
<path d="M18.9948 8C18.9415 8 18.8935 7.98133 18.8508 7.944C18.8135 7.90667 18.7948 7.85867 18.7948 7.8V6.896H16.3068C16.2535 6.896 16.2055 6.87733 16.1628 6.84C16.1255 6.80267 16.1068 6.75467 16.1068 6.696V5.936C16.1068 5.888 16.1148 5.84533 16.1308 5.808C16.1521 5.76533 16.1735 5.72533 16.1948 5.688L18.5228 2.536C18.5921 2.44533 18.6908 2.4 18.8188 2.4H19.9788C20.0375 2.4 20.0855 2.41867 20.1228 2.456C20.1655 2.49333 20.1868 2.54133 20.1868 2.6V5.704H20.8908C20.9548 5.704 21.0055 5.72533 21.0428 5.768C21.0801 5.80533 21.0988 5.85067 21.0988 5.904V6.696C21.0988 6.75467 21.0775 6.80267 21.0348 6.84C20.9975 6.87733 20.9521 6.896 20.8988 6.896H20.1868V7.8C20.1868 7.85867 20.1655 7.90667 20.1228 7.944C20.0855 7.98133 20.0375 8 19.9788 8H18.9948ZM17.4828 5.76H18.8268V3.872L17.4828 5.76Z" fill="white"/>
</svg>
