<svg width="40" height="41" viewBox="0 0 40 41" fill="none" xmlns="http://www.w3.org/2000/svg">
<g id="Report.negative.tick">
<path id="Vector" d="M20 0.5C31.046 0.5 40 9.454 40 20.5C40 31.546 31.046 40.5 20 40.5C8.954 40.5 0 31.546 0 20.5C0 9.454 8.954 0.5 20 0.5ZM27.2 10.9C26.9899 10.7424 26.7508 10.6278 26.4964 10.5626C26.2419 10.4974 25.9772 10.483 25.7172 10.5201C25.4572 10.5572 25.207 10.6452 24.981 10.7791C24.755 10.9129 24.5576 11.0899 24.4 11.3L20 17.166L15.6 11.3C15.4424 11.0899 15.245 10.9129 15.019 10.7791C14.793 10.6452 14.5428 10.5572 14.2828 10.5201C14.0228 10.483 13.7581 10.4974 13.5036 10.5626C13.2492 10.6278 13.0101 10.7424 12.8 10.9C12.5899 11.0576 12.4129 11.255 12.2791 11.481C12.1452 11.707 12.0572 11.9572 12.0201 12.2172C11.983 12.4772 11.9974 12.7419 12.0626 12.9964C12.1278 13.2508 12.2424 13.4899 12.4 13.7L17.5 20.5L12.4 27.3C12.0817 27.7243 11.9451 28.2577 12.0201 28.7828C12.0951 29.3079 12.3757 29.7817 12.8 30.1C13.2243 30.4183 13.7577 30.5549 14.2828 30.4799C14.8079 30.4049 15.2817 30.1243 15.6 29.7L20 23.834L24.4 29.7C24.7183 30.1243 25.1921 30.4049 25.7172 30.4799C26.2423 30.5549 26.7757 30.4183 27.2 30.1C27.6243 29.7817 27.9049 29.3079 27.9799 28.7828C28.0549 28.2577 27.9183 27.7243 27.6 27.3L22.5 20.5L27.6 13.7C27.7576 13.4899 27.8722 13.2508 27.9374 12.9964C28.0026 12.7419 28.017 12.4772 27.9799 12.2172C27.9428 11.9572 27.8548 11.707 27.7209 11.481C27.5871 11.255 27.4101 11.0576 27.2 10.9Z" fill="#D94D4C"/>
</g>
</svg>
