<svg width="41" height="41" viewBox="0 0 41 41" fill="none" xmlns="http://www.w3.org/2000/svg">
<g id="Report.right.tick">
<path id="Vector" fill-rule="evenodd" clip-rule="evenodd" d="M0.5 20.5C0.5 15.1957 2.60714 10.1086 6.35786 6.35786C10.1086 2.60714 15.1957 0.5 20.5 0.5C25.8043 0.5 30.8914 2.60714 34.6421 6.35786C38.3929 10.1086 40.5 15.1957 40.5 20.5C40.5 25.8043 38.3929 30.8914 34.6421 34.6421C30.8914 38.3929 25.8043 40.5 20.5 40.5C15.1957 40.5 10.1086 38.3929 6.35786 34.6421C2.60714 30.8914 0.5 25.8043 0.5 20.5ZM19.3587 29.06L30.8733 14.6653L28.7933 13.0013L18.9747 25.2707L12.02 19.476L10.3133 21.524L19.3587 29.06Z" fill="#4FD694"/>
</g>
</svg>
