<svg width="26" height="28" viewBox="0 0 26 28" fill="none" xmlns="http://www.w3.org/2000/svg">
<g id="Group 33938">
<path id="Vector" d="M23.5156 14.7269V13.2635L25.352 11.6567C25.6905 11.3584 25.9126 10.95 25.9791 10.5037C26.0456 10.0574 25.9522 9.60196 25.7154 9.21788L23.4583 5.3922C23.2905 5.1017 23.0494 4.86041 22.759 4.69254C22.4685 4.52467 22.1391 4.43613 21.8036 4.43578C21.5958 4.43419 21.389 4.46649 21.1915 4.53142L18.8674 5.31569C18.4667 5.04818 18.0481 4.80851 17.6145 4.59837L17.1268 2.1882C17.0393 1.74787 16.7998 1.35233 16.4501 1.07081C16.1003 0.789304 15.6628 0.63976 15.2139 0.648362H10.7379C10.289 0.63976 9.85145 0.789304 9.50175 1.07081C9.15205 1.35233 8.9125 1.74787 8.82504 2.1882L8.33727 4.59837C7.9011 4.80941 7.47936 5.04904 7.07479 5.31569L4.79851 4.49317C4.59891 4.44116 4.3922 4.42178 4.18641 4.43578C3.85097 4.43613 3.52151 4.52467 3.2311 4.69254C2.94069 4.86041 2.69952 5.1017 2.5318 5.3922L0.274652 9.21788C0.051411 9.60139 -0.0315444 10.0506 0.0399935 10.4885C0.111531 10.9265 0.333111 11.3259 0.666784 11.6185L2.47442 13.2731V14.7364L0.666784 16.3432C0.323686 16.6378 0.0960455 17.0444 0.0242598 17.4909C-0.047526 17.9373 0.0411858 18.3948 0.274652 18.7821L2.5318 22.6077C2.69952 22.8982 2.94069 23.1395 3.2311 23.3074C3.52151 23.4753 3.85097 23.5638 4.18641 23.5642C4.39428 23.5658 4.60103 23.5335 4.79851 23.4685L7.12261 22.6843C7.52333 22.9518 7.94195 23.1914 8.37552 23.4016L8.8633 25.8118C8.95076 26.2521 9.1903 26.6476 9.54001 26.9291C9.88971 27.2106 10.3273 27.3602 10.7761 27.3516H15.2904C15.7393 27.3602 16.1769 27.2106 16.5266 26.9291C16.8763 26.6476 17.1158 26.2521 17.2033 25.8118L17.691 23.4016C18.1272 23.1905 18.549 22.9509 18.9535 22.6843L21.2681 23.4685C21.4655 23.5335 21.6723 23.5658 21.8802 23.5642C22.2156 23.5638 22.5451 23.4753 22.8355 23.3074C23.1259 23.1395 23.367 22.8982 23.5348 22.6077L25.7154 18.7821C25.9386 18.3986 26.0216 17.9494 25.9501 17.5114C25.8785 17.0735 25.6569 16.674 25.3233 16.3815L23.5156 14.7269ZM21.8036 21.6513L18.5231 20.5419C17.7547 21.1917 16.8772 21.7001 15.9312 22.0435L15.2522 25.477H10.7379L10.0588 22.0817C9.12033 21.7287 8.24751 21.2212 7.47649 20.5801L4.18641 21.6513L1.92926 17.8257L4.53072 15.5302C4.35387 14.5402 4.35387 13.5267 4.53072 12.5367L1.92926 10.1743L4.18641 6.34862L7.46693 7.45807C8.23534 6.80826 9.11289 6.29987 10.0588 5.95649L10.7379 2.52294H15.2522L15.9312 5.91823C16.8697 6.27125 17.7425 6.77878 18.5136 7.41981L21.8036 6.34862L24.0608 10.1743L21.4593 12.4697C21.6362 13.4597 21.6362 14.4733 21.4593 15.4633L24.0608 17.8257L21.8036 21.6513Z" fill="#D3E7EC"/>
<path id="Vector_2" d="M12.9949 19.7386C11.8599 19.7386 10.7504 19.402 9.80672 18.7715C8.86302 18.1409 8.1275 17.2447 7.69317 16.1961C7.25883 15.1475 7.14519 13.9937 7.36661 12.8805C7.58804 11.7674 8.13458 10.7449 8.93712 9.94231C9.73967 9.13976 10.7622 8.59322 11.8753 8.3718C12.9885 8.15038 14.1423 8.26402 15.1909 8.69836C16.2395 9.13269 17.1357 9.86821 17.7663 10.8119C18.3968 11.7556 18.7334 12.8651 18.7334 14.0001C18.7411 14.7558 18.5979 15.5054 18.3122 16.2051C18.0265 16.9048 17.6041 17.5405 17.0697 18.0749C16.5353 18.6093 15.8996 19.0317 15.1999 19.3174C14.5003 19.6031 13.7506 19.7462 12.9949 19.7386ZM12.9949 10.1744C12.4892 10.1626 11.9865 10.2535 11.517 10.4416C11.0475 10.6297 10.6211 10.911 10.2635 11.2687C9.90586 11.6263 9.62449 12.0527 9.4364 12.5222C9.24831 12.9917 9.15741 13.4944 9.16919 14.0001C9.15741 14.5057 9.24831 15.0084 9.4364 15.4779C9.62449 15.9474 9.90586 16.3738 10.2635 16.7314C10.6211 17.0891 11.0475 17.3704 11.517 17.5585C11.9865 17.7466 12.4892 17.8375 12.9949 17.8257C13.5005 17.8375 14.0032 17.7466 14.4727 17.5585C14.9422 17.3704 15.3686 17.0891 15.7263 16.7314C16.0839 16.3738 16.3652 15.9474 16.5533 15.4779C16.7414 15.0084 16.8323 14.5057 16.8205 14.0001C16.8323 13.4944 16.7414 12.9917 16.5533 12.5222C16.3652 12.0527 16.0839 11.6263 15.7263 11.2687C15.3686 10.911 14.9422 10.6297 14.4727 10.4416C14.0032 10.2535 13.5005 10.1626 12.9949 10.1744Z" fill="#D3E7EC"/>
</g>
</svg>
