<svg width="45" height="45" viewBox="0 0 45 45" fill="none" xmlns="http://www.w3.org/2000/svg">
<g id="smiley Neutral">
<path id="Vector" d="M22.908 43.5C34.5059 43.5 43.908 34.098 43.908 22.5C43.908 10.902 34.5059 1.5 22.908 1.5C11.31 1.5 1.90796 10.902 1.90796 22.5C1.90796 34.098 11.31 43.5 22.908 43.5Z" fill="url(#paint0_linear_873_590)" stroke="#7F989A" stroke-width="2" stroke-linecap="round"/>
<path id="Vector_2" d="M15.033 29.7188C15.9075 29.7188 17.1082 29.7188 18.4646 29.7188C19.9109 29.7188 21.4063 29.7188 22.908 29.7188C24.4535 29.7188 25.9823 29.7188 27.3513 29.7188C28.7098 29.7188 29.9063 29.7188 30.783 29.7188" stroke="#7F989A" stroke-width="2" stroke-linecap="round"/>
<path id="Vector_3" d="M16.2764 20.2893C17.4973 20.2893 18.487 19.2997 18.487 18.0788C18.487 16.858 17.4973 15.8683 16.2764 15.8683C15.0556 15.8683 14.0659 16.858 14.0659 18.0788C14.0659 19.2997 15.0556 20.2893 16.2764 20.2893Z" fill="#7F989A" stroke="#7F989A" stroke-width="1.5" stroke-linecap="round"/>
<path id="Vector_4" d="M29.5399 20.2893C30.7607 20.2893 31.7504 19.2997 31.7504 18.0788C31.7504 16.858 30.7607 15.8683 29.5399 15.8683C28.319 15.8683 27.3293 16.858 27.3293 18.0788C27.3293 19.2997 28.319 20.2893 29.5399 20.2893Z" fill="#7F989A" stroke="#7F989A" stroke-width="1.5" stroke-linecap="round"/>
</g>
<defs>
<linearGradient id="paint0_linear_873_590" x1="22.908" y1="1.5" x2="22.908" y2="43.5" gradientUnits="userSpaceOnUse">
<stop stop-color="#737373" stop-opacity="0"/>
<stop offset="0.333333" stop-color="#29704D" stop-opacity="0.4"/>
<stop offset="0.666667" stop-color="#29704D" stop-opacity="0.4"/>
<stop offset="1" stop-color="#D9D9D9" stop-opacity="0"/>
</linearGradient>
</defs>
</svg>
