<svg width="45" height="45" viewBox="0 0 45 45" fill="none" xmlns="http://www.w3.org/2000/svg">
<g id="smiley positive">
<rect x="1.90796" y="1.5" width="42" height="42" rx="21" fill="url(#paint0_linear_873_563)"/>
<path id="Vector" d="M22.908 43.5C34.5059 43.5 43.908 34.098 43.908 22.5C43.908 10.902 34.5059 1.5 22.908 1.5C11.31 1.5 1.90796 10.902 1.90796 22.5C1.90796 34.098 11.31 43.5 22.908 43.5Z" stroke="#7F989A" stroke-width="2" stroke-linecap="round"/>
<path id="Vector_2" d="M14.5283 30.2371C15.459 31.0439 16.7366 31.6651 18.1801 32.0806C19.7191 32.5107 21.3104 32.725 22.9084 32.7173C24.5531 32.7173 26.18 32.5006 27.6367 32.0806C29.0824 31.6651 30.3557 31.0439 31.2885 30.2371" stroke="black" stroke-width="2" stroke-linecap="round"/>
<path id="Vector_3" d="M16.2762 20.289C17.497 20.289 18.4867 19.2993 18.4867 18.0785C18.4867 16.8577 17.497 15.868 16.2762 15.868C15.0554 15.868 14.0657 16.8577 14.0657 18.0785C14.0657 19.2993 15.0554 20.289 16.2762 20.289Z" fill="black" stroke="black" stroke-width="1.5" stroke-linecap="round"/>
<path id="Vector_4" d="M29.5396 20.289C30.7605 20.289 31.7502 19.2993 31.7502 18.0785C31.7502 16.8577 30.7605 15.868 29.5396 15.868C28.3188 15.868 27.3291 16.8577 27.3291 18.0785C27.3291 19.2993 28.3188 20.289 29.5396 20.289Z" fill="black" stroke="black" stroke-width="1.5" stroke-linecap="round"/>
</g>
<defs>
<linearGradient id="paint0_linear_873_563" x1="22.908" y1="1.5" x2="22.908" y2="43.5" gradientUnits="userSpaceOnUse">
<stop stop-color="#4FD694" stop-opacity="0"/>
<stop offset="1" stop-color="#29704D" stop-opacity="0.41"/>
</linearGradient>
</defs>
</svg>
