<svg width="26" height="26" viewBox="0 0 26 26" fill="none" xmlns="http://www.w3.org/2000/svg">
<path id="Vector" d="M2.84375 0H23.1562C24.726 0 26 1.274 26 2.84375V23.1562C26 23.9105 25.7004 24.6338 25.1671 25.1671C24.6338 25.7004 23.9105 26 23.1562 26H2.84375C2.08954 26 1.36622 25.7004 0.832915 25.1671C0.299608 24.6338 0 23.9105 0 23.1562L0 2.84375C0 1.274 1.274 0 2.84375 0ZM2.4375 2.84375V23.1562C2.4375 23.3805 2.6195 23.5625 2.84375 23.5625H23.1562C23.264 23.5625 23.3673 23.5197 23.4435 23.4435C23.5197 23.3673 23.5625 23.264 23.5625 23.1562V2.84375C23.5625 2.73601 23.5197 2.63267 23.4435 2.55649C23.3673 2.4803 23.264 2.4375 23.1562 2.4375H2.84375C2.73601 2.4375 2.63267 2.4803 2.55649 2.55649C2.4803 2.63267 2.4375 2.73601 2.4375 2.84375ZM19.0938 4.875C19.417 4.875 19.727 5.0034 19.9555 5.23196C20.1841 5.46052 20.3125 5.77052 20.3125 6.09375V18.2812C20.3125 18.6045 20.1841 18.9145 19.9555 19.143C19.727 19.3716 19.417 19.5 19.0938 19.5C18.7705 19.5 18.4605 19.3716 18.232 19.143C18.0034 18.9145 17.875 18.6045 17.875 18.2812V6.09375C17.875 5.77052 18.0034 5.46052 18.232 5.23196C18.4605 5.0034 18.7705 4.875 19.0938 4.875ZM5.6875 6.09375C5.6875 5.77052 5.8159 5.46052 6.04446 5.23196C6.27302 5.0034 6.58302 4.875 6.90625 4.875C7.22948 4.875 7.53948 5.0034 7.76804 5.23196C7.9966 5.46052 8.125 5.77052 8.125 6.09375V15.0312C8.125 15.3545 7.9966 15.6645 7.76804 15.893C7.53948 16.1216 7.22948 16.25 6.90625 16.25C6.58302 16.25 6.27302 16.1216 6.04446 15.893C5.8159 15.6645 5.6875 15.3545 5.6875 15.0312V6.09375ZM13 4.875C13.3232 4.875 13.6332 5.0034 13.8618 5.23196C14.0903 5.46052 14.2188 5.77052 14.2188 6.09375V11.7812C14.2188 12.1045 14.0903 12.4145 13.8618 12.643C13.6332 12.8716 13.3232 13 13 13C12.6768 13 12.3668 12.8716 12.1382 12.643C11.9097 12.4145 11.7812 12.1045 11.7812 11.7812V6.09375C11.7812 5.77052 11.9097 5.46052 12.1382 5.23196C12.3668 5.0034 12.6768 4.875 13 4.875Z" fill="#D3E7EC"/>
</svg>
