<svg width="52" height="68" viewBox="0 0 52 68" fill="none" xmlns="http://www.w3.org/2000/svg">
<path d="M38.3707 51.9975L38.6459 52.2029L38.3972 52.5571L38.5351 52.8075L39.9105 54.0676L38.2063 52.9904L37.1897 52.9027L37.0657 52.6189L37.2601 52.4394L37.8301 52.4262L38.3707 51.9975ZM25.1861 10.1292L25.2652 10.5896L24.814 11.0061L25.7146 10.8763L26.029 11.3552L26.9694 11.8606L28.0719 11.7919L28.0483 11.2403L28.4216 11.2277L28.4804 10.7338L28.6869 10.7546L28.7527 10.7332L28.8543 11.0269L29.1352 10.9542L29.1098 10.2365L29.5495 9.90592L30.0779 8.07935L30.3312 8.08167L29.9325 7.34491L30.3848 6.86432L30.9 7.03106L31.0051 6.39356L31.5312 6.52568L33.1016 6.02319L33.1726 6.84182L33.6889 6.8551L33.3122 6.65203L33.5649 6.24989L34.3524 6.14204L35.433 6.90992L36.4432 6.99415L36.8805 6.04164L37.2353 5.80396L37.2359 5.41394L37.8284 5.34415L38.3182 5.88991L38.8813 5.48549L38.7994 5.07529L39.7173 4.77472L39.6913 4.51509L39.9798 4.41354L39.8661 4.25258L39.5609 4.47065L39.7323 3.61737L39.123 3.34968L39.7784 3.09643L41.0696 3.25102L41.2259 3.79277L41.6067 4.06106L42.6729 3.61047L42.7306 4.25719L43.0052 4.2024L42.9169 4.52893L43.3288 4.35065L43.589 4.68239L44.0783 4.33047L43.3098 3.72931L43.7062 3.35257L44.0165 3.60815L44.264 3.33352L44.8785 3.34451L45.7762 2.94354L46.1148 2.47334L45.8604 2.10064L46.2319 1.93331L46.2152 1.52139L46.6202 1.42043L46.7471 1.0714L47.1112 1.11179L47.0714 0.897733L46.5573 0.795616L46.6052 0.554477L47.515 0.455811L48.5131 1.18102L49.4581 1.20581L50.0097 2.28815L50.4458 2.53162L50.4453 1.87736L50.8416 3.71776L50.2883 5.36777L49.7553 9.75362L48.5743 13.6069L45.2864 18.58L44.7164 20.1055L44.2363 19.8233L43.4996 20.5145L43.2435 19.776L43.6888 19.6283L43.4725 19.4466L43.124 19.6543L42.8004 19.1402L42.3821 19.5447L43.0421 19.7195L42.79 20.1545L43.1263 20.2508L43.3542 20.7066L43.2394 20.9097L42.8465 20.5451L42.5586 21.0239L43.0992 21.3597L43.6548 21.0868L43.6831 21.5293L44.0408 21.3354L44.2658 21.7266L43.7425 24.7243L44.7221 27.2819L44.92 31.9152L44.2785 31.7906L44.061 32.0213L43.439 31.7802L43.6035 32.3138L43.0975 32.21L43.3779 32.8746L44.3696 33.2416L44.4221 33.8935L44.8796 33.8975L45.2183 40.2103L44.6915 40.4676L43.5711 40.4711L39.2569 39.9628L38.1601 40.647L37.3651 42.0663L37.3582 42.7032L37.8278 43.3632L36.472 44.6492L36.0699 45.5965L34.5266 47.3758L33.8089 48.6029L33.3693 50.1537L33.866 51.0531L35.3655 52.3396L36.8984 52.5687L35.7313 52.8323L34.057 52.68L33.0676 52.8727L31.3097 53.4537L31.1989 53.6799L30.4674 53.6527L30.2793 53.8794L30.4604 54.0756L29.5045 54.3964L27.4817 54.6324L25.0465 56.4855L24.5596 57.423L24.4223 58.7655L24.7811 58.7049L25.3009 59.0424L24.5665 59.0995L23.7882 60.2222L23.6873 61.0755L24.1973 60.9843L24.0969 62.0967L23.3082 63.0336L23.1207 63.5119L23.3319 63.6296L20.1553 65.1146L19.4642 65.9736L17.3976 66.4784L17.0987 67.195L14.2608 66.6567L11.6098 64.51L11.9173 64.2082L12.3731 64.3352L12.0731 63.5338L12.9749 62.8161L12.6974 62.1411L13.4347 62.0442L13.6476 61.6063L12.3212 59.178L12.5773 59.2091L13.0377 58.7147L13.3799 57.7005L12.9177 56.9943L12.6247 57.0145L12.6218 56.6349L12.042 55.8474L12.6449 55.5474L12.811 54.9162L13.486 54.2533L13.3031 53.8137L13.6677 53.4531V52.4556L13.8766 52.0114L14.2049 52.0056L14.4818 50.7508L15.0172 50.5114L15.2306 49.954L14.6785 49.5923L14.562 48.7557L14.3676 49.1434L14.1201 48.7806L13.5247 49.1221L12.811 48.645L12.2791 48.6225L12.7383 47.2892L12.9593 47.2142L12.9783 46.5051L13.2702 46.4001L12.9679 46.0834L13.1462 45.6634L12.8497 45.4569L13.2795 44.5211L13.5731 44.3924L13.441 43.5778L12.7129 42.6968L13.5824 42.3726L13.8322 41.2983L13.4225 41.1357L13.471 40.7318L13.0354 40.0966L13.1277 39.676L12.4129 39.6028L11.071 40.3441L10.91 40.7993L10.0919 41.2811L9.30327 41.0843L8.78173 40.5686L8.80596 40.2882L8.495 40.4399L8.26712 40.2253L8.50481 39.4395L8.11826 38.7657L8.38885 36.6893L8.08999 36.185L8.90693 36.1475L8.70038 35.5879L9.2075 34.422L9.09616 34.0666L8.51808 33.9714L8.24173 33.3102L6.20805 32.5481L6.90095 31.2379L7.93884 31.1035L7.27018 31.0411L7.2898 30.1388L6.71517 29.855L7.13056 29.068L6.78498 28.7928L5.89248 29.3519L4.25746 29.1425L3.83629 29.4188L3.75956 28.8038L4.89208 28.0463L4.86785 27.3211L4.52112 27.3817L3.78322 26.9565L3.32456 26.3178L2.39801 26.0103L2.24339 26.1822L1.72589 25.8165L1.26781 25.9988L1.09473 24.7157L1.6405 24.3672L1.9659 24.7168L2.59647 24.4913L2.95763 24.0049L3.49821 23.994L3.48206 23.552L3.81899 23.6034L4.45707 23.0778L4.89438 23.4153L5.13208 24.1549L7.38037 24.1497L8.22903 24.313L8.48 24.5911L8.64442 24.2565L8.37385 23.7384L9.23347 22.033L9.95694 22.2551L10.1162 21.8149L10.4987 21.7912L10.8275 22.0249L10.715 22.2603L11.1281 22.108L11.3104 22.746L11.7656 22.896L11.6871 22.2799L13.1877 22.0272L13.3654 21.7981L13.8858 21.8484L14.3843 22.3312L14.7876 22.0883L15.5093 22.4328L15.9564 21.3487L15.9143 20.7424L16.2057 20.8964L16.2962 20.2047L18.4228 20.1343L18.773 19.2539L19.7272 18.0804L19.219 17.3229L16.0707 16.8937L16.1255 16.1616L17.0012 15.8933L17.7391 15.0325L17.9353 14.361L17.997 13.5152L17.3953 13.6242L17.7697 13.2383L17.4334 13.1494L17.3312 12.5234L17.667 11.748L17.5764 11.2986L18.3489 11.0944L18.6397 11.4036L18.9472 11.1002L19.2807 11.2202L20.1028 9.70862L19.9263 9.13053L21.5307 8.58187L21.7326 8.85706L21.428 9.27648L21.6161 9.3786L21.8671 8.94013L22.2998 9.60129L22.5421 9.60361L22.7042 8.98284L23.0884 9.02608L23.9815 9.9163L25.1861 10.1292Z" fill="#D3E7EC" stroke="black" stroke-width="0.5"/>
</svg>
