<svg width="26" height="26" viewBox="0 0 26 26" fill="none" xmlns="http://www.w3.org/2000/svg">
<g id="3 User">
<path id="Vector" d="M24.1428 3.71428H14.8571V1.85714C14.8571 1.3646 14.6615 0.892226 14.3132 0.543944C13.9649 0.195662 13.4925 0 13 0H1.85714C1.3646 0 0.892226 0.195662 0.543944 0.543944C0.195662 0.892226 0 1.3646 0 1.85714V20.4286C0 20.9211 0.195662 21.3935 0.543944 21.7418C0.892226 22.09 1.3646 22.2857 1.85714 22.2857H11.1429V24.1428C11.1429 24.6354 11.3385 25.1078 11.6868 25.456C12.0351 25.8043 12.5074 26 13 26H24.1428C24.6354 26 25.1078 25.8043 25.456 25.456C25.8043 25.1078 26 24.6354 26 24.1428V5.57143C26 5.07888 25.8043 4.60651 25.456 4.25823C25.1078 3.90995 24.6354 3.71428 24.1428 3.71428ZM1.85714 12.0714H7.58642L5.19071 14.4764L6.5 15.7857L11.1429 11.1429L6.5 6.5L5.19071 7.80928L7.58642 10.2143H1.85714V1.85714H13V20.4286H1.85714V12.0714ZM13 24.1428V22.2857C13.4925 22.2857 13.9649 22.09 14.3132 21.7418C14.6615 21.3935 14.8571 20.9211 14.8571 20.4286V5.57143H24.1428V13.9286H18.4136L20.8093 11.5236L19.5 10.2143L14.8571 14.8571L19.5 19.5L20.8093 18.1907L18.4136 15.7857H24.1428V24.1428H13Z" fill="#D3E7EC"/>
</g>
</svg>
