<svg width="28" height="28" viewBox="0 0 28 28" fill="none" xmlns="http://www.w3.org/2000/svg">
<g id="Category">
<path id="Combined Shape" d="M4.86847 1.90698C3.23346 1.90698 1.90698 3.24372 1.90698 4.89418H3.40698C3.40698 4.06115 4.07284 3.40698 4.86847 3.40698V1.90698ZM8.81753 1.90698H4.86847V3.40698H8.81753V1.90698ZM11.779 4.89418C11.779 3.24372 10.4525 1.90698 8.81753 1.90698V3.40698C9.61314 3.40698 10.279 4.06114 10.279 4.89418H11.779ZM11.779 8.87752V4.89418H10.279V8.87752H11.779ZM8.81753 11.8647C10.4525 11.8647 11.779 10.5268 11.779 8.87752H10.279C10.279 9.70971 9.61275 10.3647 8.81753 10.3647V11.8647ZM4.86847 11.8647H8.81753V10.3647H4.86847V11.8647ZM1.90698 8.87752C1.90698 10.5268 3.23348 11.8647 4.86847 11.8647V10.3647C4.07324 10.3647 3.40698 9.70971 3.40698 8.87752H1.90698ZM1.90698 4.89418V8.87752H3.40698V4.89418H1.90698ZM1.90698 4.89418C1.90698 3.24398 3.23321 1.90698 4.86847 1.90698V0.406982C2.39184 0.406982 0.406982 2.42855 0.406982 4.89418H1.90698ZM1.90698 8.87752V4.89418H0.406982V8.87752H1.90698ZM4.86847 11.8647C3.23322 11.8647 1.90698 10.5265 1.90698 8.87752H0.406982C0.406982 11.3415 2.39141 13.3647 4.86847 13.3647V11.8647ZM8.81753 11.8647H4.86847V13.3647H8.81753V11.8647ZM11.779 8.87752C11.779 10.5265 10.4528 11.8647 8.81753 11.8647V13.3647C11.2946 13.3647 13.279 11.3415 13.279 8.87752H11.779ZM11.779 4.89418V8.87752H13.279V4.89418H11.779ZM8.81753 1.90698C10.4528 1.90698 11.779 3.24398 11.779 4.89418H13.279C13.279 2.42856 11.2942 0.406982 8.81753 0.406982V1.90698ZM4.86847 1.90698H8.81753V0.406982H4.86847V1.90698ZM19.1825 1.90698C17.5475 1.90698 16.221 3.24372 16.221 4.89418H17.721C17.721 4.06115 18.3869 3.40698 19.1825 3.40698V1.90698ZM23.1328 1.90698H19.1825V3.40698H23.1328V1.90698ZM26.093 4.89418C26.093 3.2437 24.7665 1.90698 23.1328 1.90698V3.40698C23.9268 3.40698 24.593 4.06077 24.593 4.89418H26.093ZM26.093 8.87752V4.89418H24.593V8.87752H26.093ZM23.1328 11.8647C24.7665 11.8647 26.093 10.5268 26.093 8.87752H24.593C24.593 9.71008 23.9264 10.3647 23.1328 10.3647V11.8647ZM19.1825 11.8647H23.1328V10.3647H19.1825V11.8647ZM16.221 8.87752C16.221 10.5268 17.5475 11.8647 19.1825 11.8647V10.3647C18.3873 10.3647 17.721 9.70971 17.721 8.87752H16.221ZM16.221 4.89418V8.87752H17.721V4.89418H16.221ZM16.221 4.89418C16.221 3.24398 17.5473 1.90698 19.1825 1.90698V0.406982C16.7059 0.406982 14.721 2.42855 14.721 4.89418H16.221ZM16.221 8.87752V4.89418H14.721V8.87752H16.221ZM19.1825 11.8647C17.5473 11.8647 16.221 10.5265 16.221 8.87752H14.721C14.721 11.3415 16.7055 13.3647 19.1825 13.3647V11.8647ZM23.1328 11.8647H19.1825V13.3647H23.1328V11.8647ZM26.093 8.87752C26.093 10.5265 24.7668 11.8647 23.1328 11.8647V13.3647C25.609 13.3647 27.593 11.3411 27.593 8.87752H26.093ZM26.093 4.89418V8.87752H27.593V4.89418H26.093ZM23.1328 1.90698C24.7668 1.90698 26.093 3.24396 26.093 4.89418H27.593C27.593 2.42896 25.6086 0.406982 23.1328 0.406982V1.90698ZM19.1825 1.90698H23.1328V0.406982H19.1825V1.90698ZM3.40698 19.1237C3.40698 18.2891 4.07322 17.6353 4.86847 17.6353V16.1353C3.23348 16.1353 1.90698 17.472 1.90698 19.1237H3.40698ZM3.40698 23.1058V19.1237H1.90698V23.1058H3.40698ZM4.86847 24.593C4.07285 24.593 3.40698 23.9389 3.40698 23.1058H1.90698C1.90698 24.7563 3.23346 26.093 4.86847 26.093V24.593ZM8.81753 24.593H4.86847V26.093H8.81753V24.593ZM10.279 23.1058C10.279 23.9389 9.61314 24.593 8.81753 24.593V26.093C10.4525 26.093 11.779 24.7563 11.779 23.1058H10.279ZM10.279 19.1237V23.1058H11.779V19.1237H10.279ZM8.81753 17.6353C9.61276 17.6353 10.279 18.289 10.279 19.1237H11.779C11.779 17.472 10.4525 16.1353 8.81753 16.1353V17.6353ZM4.86847 17.6353H8.81753V16.1353H4.86847V17.6353ZM4.86847 14.6353C2.39143 14.6353 0.406982 16.6573 0.406982 19.1237H1.90698C1.90698 17.4723 3.23322 16.1353 4.86847 16.1353V14.6353ZM8.81753 14.6353H4.86847V16.1353H8.81753V14.6353ZM13.279 19.1237C13.279 16.6573 11.2946 14.6353 8.81753 14.6353V16.1353C10.4528 16.1353 11.779 17.4723 11.779 19.1237H13.279ZM13.279 23.1058V19.1237H11.779V23.1058H13.279ZM8.81753 27.593C11.2942 27.593 13.279 25.5714 13.279 23.1058H11.779C11.779 24.756 10.4528 26.093 8.81753 26.093V27.593ZM4.86847 27.593H8.81753V26.093H4.86847V27.593ZM0.406982 23.1058C0.406982 25.5715 2.39183 27.593 4.86847 27.593V26.093C3.23321 26.093 1.90698 24.756 1.90698 23.1058H0.406982ZM0.406982 19.1237V23.1058H1.90698V19.1237H0.406982ZM19.1825 16.1353C17.5475 16.1353 16.221 17.472 16.221 19.1237H17.721C17.721 18.2891 18.3873 17.6353 19.1825 17.6353V16.1353ZM23.1328 16.1353H19.1825V17.6353H23.1328V16.1353ZM26.093 19.1237C26.093 17.472 24.7665 16.1353 23.1328 16.1353V17.6353C23.9264 17.6353 24.593 18.2887 24.593 19.1237H26.093ZM26.093 23.1058V19.1237H24.593V23.1058H26.093ZM23.1328 26.093C24.7665 26.093 26.093 24.7563 26.093 23.1058H24.593C24.593 23.9392 23.9268 24.593 23.1328 24.593V26.093ZM19.1825 26.093H23.1328V24.593H19.1825V26.093ZM16.221 23.1058C16.221 24.7563 17.5475 26.093 19.1825 26.093V24.593C18.3869 24.593 17.721 23.9389 17.721 23.1058H16.221ZM16.221 19.1237V23.1058H17.721V19.1237H16.221ZM16.221 19.1237C16.221 17.4723 17.5473 16.1353 19.1825 16.1353V14.6353C16.7055 14.6353 14.721 16.6573 14.721 19.1237H16.221ZM16.221 23.1058V19.1237H14.721V23.1058H16.221ZM19.1825 26.093C17.5473 26.093 16.221 24.756 16.221 23.1058H14.721C14.721 25.5715 16.7059 27.593 19.1825 27.593V26.093ZM23.1328 26.093H19.1825V27.593H23.1328V26.093ZM26.093 23.1058C26.093 24.756 24.7668 26.093 23.1328 26.093V27.593C25.6086 27.593 27.593 25.571 27.593 23.1058H26.093ZM26.093 19.1237V23.1058H27.593V19.1237H26.093ZM23.1328 16.1353C24.7668 16.1353 26.093 17.4722 26.093 19.1237H27.593C27.593 16.6577 25.609 14.6353 23.1328 14.6353V16.1353ZM19.1825 16.1353H23.1328V14.6353H19.1825V16.1353Z" fill="#D3E7EC"/>
</g>
</svg>
