<svg width="41" height="41" viewBox="0 0 41 41" fill="none" xmlns="http://www.w3.org/2000/svg">
<g id="mentions">
<path id="Vector" d="M30.4957 3.37004C28.6004 3.37004 26.7828 4.12719 25.4426 5.47494C24.1025 6.82268 23.3496 8.65061 23.3496 10.5566C23.3496 12.4626 24.1025 14.2905 25.4426 15.6383C26.7828 16.986 28.6004 17.7432 30.4957 17.7432C31.3356 17.7432 32.1041 17.5967 32.8668 17.318C33.0445 17.2476 33.2344 17.2137 33.4253 17.2184C33.6162 17.2231 33.8043 17.2663 33.9783 17.3453C34.1524 17.4243 34.3089 17.5377 34.4386 17.6786C34.5684 17.8196 34.6687 17.9852 34.7336 18.1659C34.7986 18.3465 34.8269 18.5383 34.8168 18.7301C34.8068 18.9219 34.7586 19.1097 34.6751 19.2825C34.5916 19.4552 34.4745 19.6093 34.3307 19.7358C34.187 19.8622 34.0194 19.9583 33.8381 20.0185C32.7675 20.4135 31.6361 20.6158 30.4957 20.6161C28.5179 20.6155 26.5846 20.0252 24.9403 18.9198C23.296 17.8144 22.0145 16.2435 21.2579 14.4058C20.5013 12.568 20.3035 10.5459 20.6895 8.59512C21.0755 6.64431 22.0279 4.85241 23.4265 3.44594C24.825 2.03947 26.6069 1.08159 28.5467 0.693407C30.4865 0.305224 32.4972 0.504164 34.3246 1.26508C36.152 2.02599 37.7141 3.31471 38.8133 4.96831C39.9124 6.6219 40.4994 8.56613 40.5 10.5552C40.501 11.3882 40.2619 12.2036 39.8116 12.9027C39.3614 13.6019 38.7193 14.1548 37.9631 14.4947C37.2068 14.8345 36.3689 14.9466 35.5506 14.8175C34.7323 14.6884 33.9688 14.3235 33.3524 13.7671C32.7745 14.2868 32.0671 14.6392 31.3057 14.7865C30.5442 14.9338 29.7574 14.8706 29.0289 14.6036C28.3004 14.3366 27.6576 13.8758 27.1689 13.2703C26.6803 12.6649 26.3642 11.9375 26.2543 11.1656C26.1444 10.3937 26.2448 9.60629 26.5448 8.88727C26.8448 8.16825 27.3332 7.54457 27.9579 7.08269C28.5826 6.62081 29.3202 6.33805 30.0921 6.26454C30.8641 6.19103 31.6413 6.32952 32.3412 6.66526C32.5397 6.46116 32.7943 6.32145 33.0724 6.2641C33.3505 6.20675 33.6393 6.23438 33.9017 6.34344C34.164 6.45249 34.3879 6.63799 34.5446 6.87607C34.7013 7.11415 34.7835 7.39392 34.7808 7.6794V10.5523C34.7801 10.7413 34.8163 10.9286 34.8876 11.1035C34.9588 11.2785 35.0636 11.4376 35.196 11.5717C35.3283 11.7059 35.4857 11.8126 35.6591 11.8856C35.8324 11.9586 36.0184 11.9966 36.2063 11.9974C36.3943 11.9981 36.5805 11.9616 36.7545 11.89C36.9284 11.8184 37.0866 11.713 37.22 11.5799C37.4895 11.311 37.6417 10.9455 37.6433 10.5638V10.558C37.644 9.61389 37.4596 8.67885 37.1007 7.80642C36.7418 6.93399 36.2153 6.14129 35.5515 5.47367C34.8876 4.80605 34.0994 4.27662 33.2318 3.91565C32.3643 3.55469 31.4346 3.36928 30.4957 3.37004ZM29.0673 10.558C29.0673 10.939 29.2178 11.3044 29.4857 11.5738C29.7536 11.8432 30.1169 11.9945 30.4957 11.9945C30.8745 11.9945 31.2379 11.8432 31.5057 11.5738C31.7736 11.3044 31.9241 10.939 31.9241 10.558C31.9241 10.1771 31.7736 9.81171 31.5057 9.54232C31.2379 9.27293 30.8745 9.12159 30.4957 9.12159C30.1169 9.12159 29.7536 9.27293 29.4857 9.54232C29.2178 9.81171 29.0673 10.1771 29.0673 10.558ZM40.4943 24.9226V18.6826C39.6793 19.6979 38.7161 20.5832 37.6376 21.3085V24.9226C37.6376 26.0655 37.1861 27.1616 36.3825 27.9698C35.5789 28.7779 34.4889 29.2319 33.3524 29.2319H21.3884L11.9269 37.5547V29.2262H7.64184C6.50635 29.2262 5.41728 28.773 4.61383 27.966C3.81038 27.1591 3.35825 26.0645 3.35673 24.9226V10.558C3.35673 9.41513 3.8082 8.31903 4.61181 7.51087C5.41542 6.70271 6.50536 6.24869 7.64184 6.24869H18.3717C18.7336 5.22593 19.2116 4.2683 19.8058 3.37578H7.64184C5.7477 3.37578 3.93115 4.13248 2.5918 5.47942C1.25244 6.82636 0.5 8.65319 0.5 10.558V24.9226C0.5 25.8658 0.684729 26.7997 1.04364 27.6711C1.40255 28.5425 1.92861 29.3343 2.5918 30.0012C3.93115 31.3481 5.7477 32.1048 7.64184 32.1048H9.0702V37.6869C9.07065 38.2275 9.22584 38.7565 9.51724 39.2108C9.80863 39.665 10.2239 40.0253 10.7134 40.2486C11.203 40.4719 11.7461 40.5487 12.2779 40.4699C12.8097 40.3911 13.3077 40.16 13.7124 39.8042L22.4626 32.1048H33.3524C34.2903 32.1048 35.219 31.9191 36.0855 31.5581C36.952 31.1972 37.7393 30.6681 38.4025 30.0012C39.0657 29.3343 39.5917 28.5425 39.9506 27.6711C40.3096 26.7997 40.4943 25.8658 40.4943 24.9226Z" fill="#7F989A"/>
</g>
</svg>
