<svg width="43" height="62" viewBox="0 0 43 62" fill="none" xmlns="http://www.w3.org/2000/svg">
<g id="Frame 427319970" opacity="0.4">
<g id="Group 33959">
<path id="Vector 31 (Stroke)" fill-rule="evenodd" clip-rule="evenodd" d="M4.8716 60.231L1.31398 46.1448C1.09874 45.2926 1.62073 44.4293 2.47987 44.2165C3.33902 44.0037 4.20998 44.5221 4.42521 45.3743L6.52639 53.6937L18.3685 29.3876L31.3019 30.013L23.3308 12.2349L37.664 12.928L35.5282 3.66496C35.3308 2.80853 35.8706 1.95605 36.734 1.7609C37.5974 1.56575 38.4574 2.10183 38.6549 2.95826L41.7333 16.3093L28.3773 15.6635L36.3484 33.4416L20.334 32.6672L8.93852 56.0565L21.6332 53.208C22.4969 53.0142 23.3561 53.5516 23.5522 54.4083C23.7483 55.2651 23.2071 56.1167 22.3434 56.3105L4.8716 60.231Z" fill="#D94D4C"/>
</g>
</g>
</svg>
