<svg width="41" height="41" viewBox="0 0 41 41" fill="none" xmlns="http://www.w3.org/2000/svg">
<g id="report.newsicon">
<g id="Vector">
<path d="M29.3889 0.5C30.5102 0.499664 31.5901 0.900856 32.4123 1.62315C33.2345 2.34545 33.7381 3.33546 33.8222 4.39474L33.8333 4.71053V15.2368H37.1667C37.9953 15.2369 38.7942 15.5293 39.4076 16.0571C40.021 16.5849 40.4049 17.3102 40.4844 18.0916L40.5 18.3947V34.1842C40.5001 35.7952 39.8504 37.3453 38.6838 38.5174C37.5172 39.6895 35.922 40.395 34.2244 40.4895L33.8333 40.5H4.94444C3.82316 40.5003 2.74319 40.0991 1.921 39.3769C1.09882 38.6546 0.595208 37.6645 0.511112 36.6053L0.5 36.2895V4.71053C0.499645 3.64826 0.923126 2.62512 1.68555 1.84622C2.44797 1.06731 3.49299 0.590197 4.61111 0.510527L4.94444 0.5H29.3889ZM36.0556 19.4474H33.8333V36.2895C34.4227 36.2895 34.9879 36.0677 35.4047 35.6729C35.8214 35.278 36.0556 34.7426 36.0556 34.1842V19.4474ZM18.2778 21.5526H11.6111C11.0447 21.5532 10.4999 21.7587 10.0881 22.1271C9.67621 22.4954 9.42837 22.9988 9.39517 23.5345C9.36198 24.0702 9.54594 24.5976 9.90948 25.0091C10.273 25.4206 10.7887 25.685 11.3511 25.7484L11.6111 25.7632H18.2778C18.8442 25.7626 19.389 25.5571 19.8008 25.1887C20.2127 24.8204 20.4605 24.3169 20.4937 23.7813C20.5269 23.2456 20.3429 22.7181 19.9794 22.3067C19.6159 21.8952 19.1002 21.6307 18.5378 21.5674L18.2778 21.5526ZM22.7222 11.0263H11.6111C11.0217 11.0263 10.4565 11.2481 10.0398 11.6429C9.62302 12.0377 9.38889 12.5732 9.38889 13.1316C9.38889 13.6899 9.62302 14.2254 10.0398 14.6202C10.4565 15.015 11.0217 15.2368 11.6111 15.2368H22.7222C23.3116 15.2368 23.8768 15.015 24.2936 14.6202C24.7103 14.2254 24.9444 13.6899 24.9444 13.1316C24.9444 12.5732 24.7103 12.0377 24.2936 11.6429C23.8768 11.2481 23.3116 11.0263 22.7222 11.0263Z" fill="#E5CB49"/>
<path d="M29.3889 0.5C30.5102 0.499664 31.5901 0.900856 32.4123 1.62315C33.2345 2.34545 33.7381 3.33546 33.8222 4.39474L33.8333 4.71053V15.2368H37.1667C37.9953 15.2369 38.7942 15.5293 39.4076 16.0571C40.021 16.5849 40.4049 17.3102 40.4844 18.0916L40.5 18.3947V34.1842C40.5001 35.7952 39.8504 37.3453 38.6838 38.5174C37.5172 39.6895 35.922 40.395 34.2244 40.4895L33.8333 40.5H4.94444C3.82316 40.5003 2.74319 40.0991 1.921 39.3769C1.09882 38.6546 0.595208 37.6645 0.511112 36.6053L0.5 36.2895V4.71053C0.499645 3.64826 0.923126 2.62512 1.68555 1.84622C2.44797 1.06731 3.49299 0.590197 4.61111 0.510527L4.94444 0.5H29.3889ZM36.0556 19.4474H33.8333V36.2895C34.4227 36.2895 34.9879 36.0677 35.4047 35.6729C35.8214 35.278 36.0556 34.7426 36.0556 34.1842V19.4474ZM18.2778 21.5526H11.6111C11.0447 21.5532 10.4999 21.7587 10.0881 22.1271C9.67621 22.4954 9.42837 22.9988 9.39517 23.5345C9.36198 24.0702 9.54594 24.5976 9.90948 25.0091C10.273 25.4206 10.7887 25.685 11.3511 25.7484L11.6111 25.7632H18.2778C18.8442 25.7626 19.389 25.5571 19.8008 25.1887C20.2127 24.8204 20.4605 24.3169 20.4937 23.7813C20.5269 23.2456 20.3429 22.7181 19.9794 22.3067C19.6159 21.8952 19.1002 21.6307 18.5378 21.5674L18.2778 21.5526ZM22.7222 11.0263H11.6111C11.0217 11.0263 10.4565 11.2481 10.0398 11.6429C9.62302 12.0377 9.38889 12.5732 9.38889 13.1316C9.38889 13.6899 9.62302 14.2254 10.0398 14.6202C10.4565 15.015 11.0217 15.2368 11.6111 15.2368H22.7222C23.3116 15.2368 23.8768 15.015 24.2936 14.6202C24.7103 14.2254 24.9444 13.6899 24.9444 13.1316C24.9444 12.5732 24.7103 12.0377 24.2936 11.6429C23.8768 11.2481 23.3116 11.0263 22.7222 11.0263Z" fill="black" fill-opacity="0.1"/>
</g>
<path id="Subtract" fill-rule="evenodd" clip-rule="evenodd" d="M2.60352 39.8696C3.30189 40.2791 4.11165 40.5002 4.94418 40.5H33.8331L34.2242 40.4895C35.9217 40.3949 37.517 39.6895 38.6836 38.5174C39.8501 37.3453 40.4998 35.7952 40.4997 34.1842V18.3947L40.4842 18.0916C40.4046 17.3102 40.0207 16.5849 39.4073 16.0571C38.7939 15.5293 37.995 15.2369 37.1664 15.2368H33.8331V4.71051L33.822 4.39472C33.7379 3.33544 33.2342 2.34543 32.4121 1.62313C32.2079 1.44378 31.9879 1.28422 31.7552 1.14569L24.019 11.4221C24.116 11.4881 24.2078 11.5619 24.2933 11.6429C24.7101 12.0377 24.9442 12.5732 24.9442 13.1316C24.9442 13.6899 24.7101 14.2254 24.2933 14.6202C23.8766 15.015 23.3113 15.2368 22.722 15.2368H21.1473L16.3927 21.5526H18.2775L18.5375 21.5674C19.1 21.6307 19.6156 21.8952 19.9792 22.3067C20.3427 22.7181 20.5266 23.2456 20.4935 23.7813C20.4603 24.3169 20.2124 24.8204 19.8006 25.1887C19.3887 25.5571 18.8439 25.7625 18.2775 25.7631H13.223L2.60352 39.8696ZM33.8331 19.4473H36.0553V34.1842C36.0553 34.7425 35.8212 35.278 35.4044 35.6728C34.9877 36.0677 34.4224 36.2895 33.8331 36.2895V19.4473Z" fill="#E5CB49"/>
</g>
</svg>
