<svg width="34" height="47" viewBox="0 0 34 47" fill="none" xmlns="http://www.w3.org/2000/svg">
<g id="SM reach">
<path id="Vector" d="M20.9138 23.5006C20.309 23.5005 19.7104 23.6202 19.1532 23.8525C18.5961 24.0849 18.0918 24.4253 17.6703 24.8535L17.0022 25.5333L16.3273 24.8535C15.9059 24.4251 15.4017 24.0846 14.8445 23.852C14.2874 23.6195 13.6887 23.4996 13.0838 23.4996C12.4789 23.4996 11.8802 23.6195 11.3231 23.852C10.766 24.0846 10.2617 24.4251 9.84028 24.8535C8.98034 25.7302 8.49951 26.9028 8.49951 28.1233C8.49951 29.3438 8.98034 30.5164 9.84028 31.3931L17.0022 38.6075L24.1574 31.3931C25.0173 30.5164 25.4981 29.3438 25.4981 28.1233C25.4981 26.9028 25.0173 25.7302 24.1574 24.8535C23.7358 24.4253 23.2316 24.0849 22.6744 23.8525C22.1173 23.6202 21.5186 23.5005 20.9138 23.5006Z" fill="#7F989A"/>
<path id="Vector_2" d="M33.1377 12.6099L33.1477 12.6198L33.1583 12.6291C33.2703 12.728 33.3587 12.8495 33.4174 12.9848C33.4761 13.1201 33.504 13.2662 33.4992 13.4129L33.499 13.421V13.4291L33.499 43.6414C33.499 43.6418 33.499 43.6422 33.499 43.6426C33.4964 44.3976 33.1915 45.1222 32.6489 45.658C32.106 46.194 31.3692 46.4974 30.5988 46.5C30.5984 46.5 30.598 46.5 30.5976 46.5H3.40115C3.40075 46.5 3.40035 46.5 3.39994 46.5C2.62956 46.4974 1.89271 46.194 1.34985 45.658C0.807082 45.1221 0.502234 44.3973 0.499756 43.6421V3.35864C0.502234 2.60351 0.807081 1.87869 1.34985 1.34276C1.89283 0.80662 2.62988 0.503232 3.40043 0.500772H20.3993H20.4072L20.4151 0.500523C20.5666 0.495739 20.7171 0.523829 20.856 0.582614C20.9949 0.641393 21.1186 0.729312 21.2185 0.839758L21.2279 0.850215L21.238 0.860123L33.1377 12.6099ZM20.7506 3.67349L19.8993 2.83291V4.02928V13.4291V13.9291H20.3993H29.9191H31.1371L30.2704 13.0733L20.7506 3.67349ZM30.5991 44.1429H31.0991V43.6429V16.7862V16.2862H30.5991L20.4008 16.2862C20.4006 16.2862 20.4003 16.2862 20.4001 16.2862C19.6295 16.2838 18.8925 15.9804 18.3495 15.4442C17.8067 14.9083 17.5018 14.1834 17.4994 13.4282C17.4994 13.428 17.4994 13.4278 17.4994 13.4276L17.4994 3.35786V2.85786H16.9994H3.39968H2.89968V3.35786V43.6429V44.1429H3.39968H30.5991Z" fill="#7F989A" stroke="white"/>
</g>
</svg>
