<svg width="45" height="45" viewBox="0 0 45 45" fill="none" xmlns="http://www.w3.org/2000/svg">
<g id="smiley Negative">
<path id="Vector" d="M22.408 43.5C34.0059 43.5 43.408 34.098 43.408 22.5C43.408 10.902 34.0059 1.5 22.408 1.5C10.81 1.5 1.40796 10.902 1.40796 22.5C1.40796 34.098 10.81 43.5 22.408 43.5Z" fill="url(#paint0_linear_873_579)" stroke="#7F989A" stroke-width="2" stroke-linecap="round"/>
<path id="Vector_2" d="M14.0278 32.717C14.9585 31.9101 16.2361 31.289 17.6796 30.8734C19.2187 30.4433 20.81 30.229 22.4079 30.2368C24.0526 30.2368 25.6795 30.4534 27.1363 30.8734C28.5819 31.289 29.8552 31.9101 30.788 32.717" stroke="#7F989A" stroke-width="2" stroke-linecap="round"/>
<path id="Vector_3" d="M15.7764 20.2893C16.9973 20.2893 17.987 19.2997 17.987 18.0788C17.987 16.858 16.9973 15.8683 15.7764 15.8683C14.5556 15.8683 13.5659 16.858 13.5659 18.0788C13.5659 19.2997 14.5556 20.2893 15.7764 20.2893Z" fill="#7F989A" stroke="#7F989A" stroke-width="1.5" stroke-linecap="round"/>
<path id="Vector_4" d="M29.0399 20.2893C30.2607 20.2893 31.2504 19.2997 31.2504 18.0788C31.2504 16.858 30.2607 15.8683 29.0399 15.8683C27.819 15.8683 26.8293 16.858 26.8293 18.0788C26.8293 19.2997 27.819 20.2893 29.0399 20.2893Z" fill="#7F989A" stroke="#7F989A" stroke-width="1.5" stroke-linecap="round"/>
</g>
<defs>
<linearGradient id="paint0_linear_873_579" x1="22.408" y1="1.5" x2="22.408" y2="43.5" gradientUnits="userSpaceOnUse">
<stop offset="0.025" stop-color="#29704D" stop-opacity="0.55"/>
<stop offset="0.18" stop-color="#29704D" stop-opacity="0.55"/>
<stop offset="1" stop-color="white" stop-opacity="0.22"/>
</linearGradient>
</defs>
</svg>
