<svg width="26" height="24" viewBox="0 0 26 24" fill="none" xmlns="http://www.w3.org/2000/svg">
<g id="Vector">
<path fill-rule="evenodd" clip-rule="evenodd" d="M0 3.63758C0 1.67855 1.43 0.0896606 3.19312 0.0896606H7.7545C9.51762 0.0896606 10.9476 1.67855 10.9476 3.63758V4.65049C10.9476 6.61133 9.51762 8.19841 7.7545 8.19841H3.19312C2.34626 8.19841 1.53407 7.82461 0.935245 7.15925C0.336418 6.49389 0 5.59146 0 4.65049V3.63758ZM3.19312 3.13202C3.13337 3.13202 3.07421 3.1451 3.019 3.17051C2.9638 3.19591 2.91364 3.23315 2.87139 3.2801C2.82914 3.32704 2.79563 3.38277 2.77276 3.44411C2.74989 3.50545 2.73812 3.57119 2.73812 3.63758V4.65049C2.73791 4.71704 2.74952 4.78297 2.77229 4.84452C2.79506 4.90606 2.82854 4.96201 2.87082 5.00914C2.91309 5.05628 2.96332 5.09368 3.01863 5.1192C3.07394 5.14472 3.13324 5.15786 3.19312 5.15786H7.7545C7.81425 5.15786 7.87342 5.14478 7.92862 5.11937C7.98382 5.09397 8.03398 5.05673 8.07623 5.00978C8.11848 4.96284 8.152 4.9071 8.17486 4.84577C8.19773 4.78443 8.2095 4.71869 8.2095 4.6523V3.63758C8.2095 3.57119 8.19773 3.50545 8.17486 3.44411C8.152 3.38277 8.11848 3.32704 8.07623 3.2801C8.03398 3.23315 7.98382 3.19591 7.92862 3.17051C7.87342 3.1451 7.81425 3.13202 7.7545 3.13202H3.19312ZM13.2275 4.14494C13.2275 3.30536 13.8401 2.62466 14.5958 2.62466H24.6317C24.9946 2.62466 25.3427 2.78483 25.5992 3.06994C25.8558 3.35505 26 3.74174 26 4.14494C26 4.54814 25.8558 4.93483 25.5992 5.21994C25.3427 5.50504 24.9946 5.66522 24.6317 5.66522H14.5958C14.2329 5.66522 13.8848 5.50504 13.6283 5.21994C13.3717 4.93483 13.2275 4.54814 13.2275 4.14494ZM0.455 13.2666C0.455 12.427 1.06925 11.7463 1.82487 11.7463H19.1588C19.3384 11.7463 19.5164 11.7857 19.6824 11.8621C19.8484 11.9385 19.9992 12.0504 20.1262 12.1916C20.2533 12.3328 20.3541 12.5004 20.4228 12.6848C20.4916 12.8693 20.527 13.067 20.527 13.2666C20.527 13.4663 20.4916 13.6639 20.4228 13.8484C20.3541 14.0328 20.2533 14.2004 20.1262 14.3416C19.9992 14.4828 19.8484 14.5948 19.6824 14.6712C19.5164 14.7476 19.3384 14.7869 19.1588 14.7869H1.82487C1.64519 14.7869 1.46727 14.7476 1.30127 14.6712C1.13526 14.5948 0.98443 14.4828 0.857376 14.3416C0.730322 14.2004 0.629538 14.0328 0.560777 13.8484C0.492016 13.6639 0.455 13.4663 0.455 13.2666ZM0.455 22.3883C0.455 21.5505 1.06925 20.8698 1.82487 20.8698H23.7201C23.8998 20.8698 24.0777 20.9091 24.2437 20.9855C24.4097 21.0619 24.5606 21.1739 24.6876 21.3151C24.8147 21.4562 24.9155 21.6238 24.9842 21.8083C25.053 21.9927 25.0884 22.1904 25.0884 22.3901C25.0884 22.5897 25.053 22.7874 24.9842 22.9719C24.9155 23.1563 24.8147 23.3239 24.6876 23.4651C24.5606 23.6062 24.4097 23.7182 24.2437 23.7946C24.0777 23.871 23.8998 23.9104 23.7201 23.9104H1.82487C1.46199 23.9104 1.11397 23.7502 0.857376 23.4651C0.600779 23.18 0.456625 22.7933 0.456625 22.3901" fill="#D3E7EC"/>
<path d="M24.1747 14.7866C24.3544 14.7866 24.5323 14.7473 24.6983 14.6709C24.8643 14.5945 25.0151 14.4825 25.1422 14.3413C25.2692 14.2002 25.37 14.0326 25.4388 13.8481C25.5075 13.6637 25.5429 13.466 25.5429 13.2664C25.5429 13.0667 25.5075 12.869 25.4388 12.6846C25.37 12.5001 25.2692 12.3325 25.1422 12.1914C25.0151 12.0502 24.8643 11.9382 24.6983 11.8618C24.5323 11.7854 24.3544 11.7461 24.1747 11.7461C23.8118 11.7461 23.4638 11.9062 23.2072 12.1914C22.9506 12.4765 22.8064 12.8631 22.8064 13.2664C22.8064 13.6696 22.9506 14.0562 23.2072 14.3413C23.4638 14.6265 23.8118 14.7866 24.1747 14.7866Z" fill="#D3E7EC"/>
</g>
</svg>
