<svg width="29" height="28" viewBox="0 0 29 28" fill="none" xmlns="http://www.w3.org/2000/svg">
<path id="Vector" d="M27.9792 13.8144H9.96146M3.60167 13.8144H1M3.60167 13.8144C3.60167 12.9712 3.93661 12.1626 4.53282 11.5664C5.12903 10.9702 5.93767 10.6352 6.78083 10.6352C7.624 10.6352 8.43263 10.9702 9.02884 11.5664C9.62505 12.1626 9.96 12.9712 9.96 13.8144C9.96 14.6575 9.62505 15.4662 9.02884 16.0624C8.43263 16.6586 7.624 16.9935 6.78083 16.9935C5.93767 16.9935 5.12903 16.6586 4.53282 16.0624C3.93661 15.4662 3.60167 14.6575 3.60167 13.8144ZM27.9792 23.4496H19.5967M19.5967 23.4496C19.5967 24.2929 19.2609 25.1025 18.6646 25.6988C18.0682 26.2952 17.2594 26.6302 16.416 26.6302C15.5729 26.6302 14.7642 26.2938 14.168 25.6976C13.5718 25.1014 13.2369 24.2927 13.2369 23.4496M19.5967 23.4496C19.5967 22.6062 19.2609 21.7981 18.6646 21.2018C18.0682 20.6054 17.2594 20.2704 16.416 20.2704C15.5729 20.2704 14.7642 20.6054 14.168 21.2016C13.5718 21.7978 13.2369 22.6064 13.2369 23.4496M13.2369 23.4496H1M27.9792 4.17917H23.451M17.0912 4.17917H1M17.0912 4.17917C17.0912 3.336 17.4262 2.52737 18.0224 1.93116C18.6186 1.33495 19.4272 1 20.2704 1C20.6879 1 21.1013 1.08223 21.487 1.242C21.8727 1.40177 22.2232 1.63594 22.5184 1.93116C22.8136 2.22637 23.0478 2.57684 23.2076 2.96255C23.3674 3.34827 23.4496 3.76167 23.4496 4.17917C23.4496 4.59666 23.3674 5.01007 23.2076 5.39578C23.0478 5.7815 22.8136 6.13196 22.5184 6.42718C22.2232 6.72239 21.8727 6.95657 21.487 7.11633C21.1013 7.2761 20.6879 7.35833 20.2704 7.35833C19.4272 7.35833 18.6186 7.02339 18.0224 6.42718C17.4262 5.83097 17.0912 5.02233 17.0912 4.17917Z" stroke="black" stroke-width="1.5" stroke-miterlimit="10" stroke-linecap="round"/>
</svg>
